<svg width="39" height="24" viewBox="0 0 39 24" fill="none" xmlns="http://www.w3.org/2000/svg">
<path d="M5.84 18.2C4.18667 18.2 2.91333 17.7467 2.02 16.84C1.12667 15.92 0.68 14.5733 0.68 12.8C0.68 11.0533 1.10667 9.72 1.96 8.8C2.82667 7.86667 4.05333 7.4 5.64 7.4C6.34667 7.4 7.02667 7.44667 7.68 7.54C7.98667 7.58 8.24 7.72 8.44 7.96C8.64 8.2 8.74 8.48 8.74 8.8C8.74 9.06667 8.63333 9.28 8.42 9.44C8.22 9.6 7.98667 9.65333 7.72 9.6C7.2 9.49333 6.62 9.44 5.98 9.44C5.14 9.44 4.51333 9.70667 4.1 10.24C3.68667 10.7733 3.48 11.6267 3.48 12.8C3.48 14 3.7 14.86 4.14 15.38C4.58 15.9 5.26 16.16 6.18 16.16C6.83333 16.16 7.4 16.1 7.88 15.98C8.13333 15.9133 8.36 15.96 8.56 16.12C8.77333 16.28 8.88 16.4867 8.88 16.74C8.88 17.06 8.78 17.34 8.58 17.58C8.39333 17.82 8.14667 17.9667 7.84 18.02C7.16 18.14 6.49333 18.2 5.84 18.2ZM12.6562 18C12.3496 18 12.0829 17.8867 11.8563 17.66C11.6429 17.4333 11.5363 17.1667 11.5363 16.86V8.74C11.5363 8.43333 11.6429 8.16667 11.8563 7.94C12.0829 7.71333 12.3496 7.6 12.6562 7.6H12.9363C13.2429 7.6 13.5029 7.70667 13.7163 7.92C13.9429 8.13333 14.0629 8.39333 14.0763 8.7V8.84C14.0763 8.85333 14.0829 8.86 14.0963 8.86C14.1229 8.86 14.1363 8.85333 14.1363 8.84C14.9229 7.88 15.8096 7.4 16.7963 7.4C17.3963 7.4 17.8763 7.51333 18.2363 7.74C18.6096 7.96667 18.9363 8.36667 19.2163 8.94C19.2163 8.95333 19.2296 8.96 19.2563 8.96C19.2696 8.96 19.2829 8.95333 19.2963 8.94C20.1363 7.91333 21.0829 7.4 22.1363 7.4C23.2429 7.4 24.0363 7.7 24.5163 8.3C25.0096 8.9 25.2563 9.93333 25.2563 11.4V16.86C25.2563 17.1667 25.1429 17.4333 24.9163 17.66C24.7029 17.8867 24.4429 18 24.1363 18H23.7963C23.4896 18 23.2229 17.8867 22.9963 17.66C22.7696 17.4333 22.6562 17.1667 22.6562 16.86V11.8C22.6562 10.8267 22.5629 10.1867 22.3763 9.88C22.1896 9.57333 21.8296 9.42 21.2963 9.42C20.9496 9.42 20.6029 9.58 20.2562 9.9C19.9096 10.22 19.7363 10.54 19.7363 10.86V16.86C19.7363 17.1667 19.6229 17.4333 19.3963 17.66C19.1696 17.8867 18.9029 18 18.5963 18H18.2563C17.9496 18 17.6829 17.8867 17.4563 17.66C17.2429 17.4333 17.1363 17.1667 17.1363 16.86V11.8C17.1363 10.84 17.0363 10.2067 16.8363 9.9C16.6496 9.58 16.2896 9.42 15.7563 9.42C15.4096 9.42 15.0629 9.58 14.7163 9.9C14.3696 10.22 14.1963 10.54 14.1963 10.86V16.86C14.1963 17.1667 14.0829 17.4333 13.8563 17.66C13.6296 17.8867 13.3629 18 13.0563 18H12.6562ZM32.263 9.4C30.7296 9.4 29.963 10.5333 29.963 12.8C29.963 13.9333 30.1696 14.7867 30.583 15.36C30.9963 15.92 31.5563 16.2 32.263 16.2C32.8896 16.2 33.4296 15.9933 33.883 15.58C34.3363 15.1667 34.563 14.6933 34.563 14.16V11.44C34.563 10.9067 34.3363 10.4333 33.883 10.02C33.4296 9.60667 32.8896 9.4 32.263 9.4ZM31.463 18.2C30.2763 18.2 29.2896 17.72 28.503 16.76C27.7163 15.7867 27.323 14.4667 27.323 12.8C27.323 11.08 27.6963 9.75333 28.443 8.82C29.203 7.87333 30.2096 7.4 31.463 7.4C32.5963 7.4 33.5963 7.81333 34.463 8.64C34.4763 8.65333 34.4896 8.66 34.503 8.66C34.5163 8.66 34.523 8.65333 34.523 8.64V4.14C34.523 3.83333 34.6363 3.56667 34.863 3.34C35.0896 3.11333 35.3563 3 35.663 3H36.063C36.3696 3 36.6363 3.11333 36.863 3.34C37.0896 3.56667 37.203 3.83333 37.203 4.14V16.86C37.203 17.1667 37.0896 17.4333 36.863 17.66C36.6363 17.8867 36.3696 18 36.063 18H35.843C35.523 18 35.2496 17.8933 35.023 17.68C34.8096 17.4533 34.6963 17.18 34.683 16.86L34.663 16.72C34.663 16.7067 34.6563 16.7 34.643 16.7C34.6296 16.7 34.6163 16.7067 34.603 16.72C33.723 17.7067 32.6763 18.2 31.463 18.2Z" fill="black"/>
</svg>
